<svg xmlns="http://www.w3.org/2000/svg" version="1.1" xmlns:xlink="http://www.w3.org/1999/xlink" xmlns:svgjs="http://svgjs.dev/svgjs" width="2000" height="1247" viewBox="0 0 2000 1247"><g transform="matrix(1,0,0,1,-1.2121212121212466,0.504858299595071)"><svg viewBox="0 0 396 247" data-background-color="#ffffff" preserveAspectRatio="xMidYMid meet" height="1247" width="2000" xmlns="http://www.w3.org/2000/svg" xmlns:xlink="http://www.w3.org/1999/xlink"><g id="tight-bounds" transform="matrix(1,0,0,1,0.2400000000000091,-0.09999999999999432)"><svg viewBox="0 0 395.52 247.2" height="247.2" width="395.52"><g><svg></svg></g><g><svg viewBox="0 0 395.52 247.2" height="247.2" width="395.52"><g transform="matrix(1,0,0,1,87.27598620524486,47.215199999999996)"><svg viewBox="0 0 220.96802758951026 152.7696" height="152.7696" width="220.96802758951026"><g><svg viewBox="0 0 220.96802758951026 152.7696" height="152.7696" width="220.96802758951026"><g><svg viewBox="0 0 220.96802758951026 152.7696" height="152.7696" width="220.96802758951026"><g><svg viewBox="0 0 220.96802758951026 152.7696" height="152.7696" width="220.96802758951026"><g id="textblocktransform"><svg viewBox="0 0 220.96802758951026 152.7696" height="152.7696" width="220.96802758951026" id="textblock"><g><svg viewBox="0 0 220.96802758951026 152.7696" height="152.7696" width="220.96802758951026"><g transform="matrix(1,0,0,1,0,0)"><svg width="220.96802758951026" viewBox="-0.8 -41.5 86.278571423165 59.65" height="152.7696" data-palette-color="#915eef"><path d="M51.3 10.75L51.3 10.75Q49.1 10.75 47.85 9.4 46.6 8.05 46.08 6 45.55 3.95 45.55 1.85L45.55 1.85Q45.55 0.45 45.7-0.75L45.7-0.75Q45.9-2.6 46.48-4.8 47.05-7 47.8-9.2 48.55-11.4 49.3-13.35 50.05-15.3 50.65-16.65L50.65-16.65Q51.75-19.4 52.7-21.83 53.65-24.25 53.95-26.15L53.95-26.15Q53.95-26.25 53.98-26.35 54-26.45 54-26.5L54-26.5Q54-27.3 53.4-27.3L53.4-27.3Q52.6-27.3 51.05-26.1 49.5-24.9 48-23.3L48-23.3Q45.6-20.9 43.43-18.13 41.25-15.35 39.6-12.5L39.6-12.5Q37.95-9.65 36.98-6.83 36-4 36-1.45L36-1.45Q34.4-1.45 33.75-2.35 33.1-3.25 33.1-4.6L33.1-4.6Q33.1-5.5 33.3-6.35L33.3-6.35Q33.65-8.1 34.4-10.1 35.15-12.1 35.65-13.2L35.65-13.2Q35.9-13.9 36.58-15.6 37.25-17.3 37.85-18.95L37.85-18.95Q38.55-21 39.38-23.38 40.2-25.75 40.9-28.15L40.9-28.15Q41.75-31 42.35-33.65 42.95-36.3 42.95-38L42.95-38Q42.95-39.05 42.7-39.73 42.45-40.4 41.8-40.4L41.8-40.4Q40.45-40.4 38.83-39.23 37.2-38.05 35.65-36.23 34.1-34.4 32.9-32.5L32.9-32.5Q30.4-28.5 28.73-24.93 27.05-21.35 25.75-17.7L25.75-17.7Q25.2-16.25 24.53-14.2 23.85-12.15 23.13-9.83 22.4-7.5 21.73-5.25 21.05-3 20.45-1.2L20.45-1.2Q19.5 1.6 18.32 4.08 17.15 6.55 15.6 8.08 14.05 9.6 11.95 9.6L11.95 9.6Q10.7 9.6 10.2 8.53 9.7 7.45 9.7 5.85L9.7 5.85Q9.7 4.7 9.93 3.4 10.15 2.1 10.5 0.85L10.5 0.85Q11.85-3.7 14.15-8.53 16.45-13.35 19-18.15L19-18.15Q20-20.15 21.28-22.55 22.55-24.95 23.85-27.45 25.15-29.95 26.25-32.25 27.35-34.55 28.05-36.35L28.05-36.35Q27.75-35.8 26.95-34.55 26.15-33.3 25.25-31.93 24.35-30.55 23.7-29.5L23.7-29.5Q22.3-27.25 20.9-24.9L20.9-24.9Q19.5-22.5 18-20.25 16.5-18 14.9-16.05L14.9-16.05Q13.25-14.05 11.4-12.6L11.4-12.6Q9.5-11.15 7.4-10.33 5.3-9.5 2.85-9.6L2.85-9.6Q1.15-9.7 0.18-11.15-0.8-12.6-0.8-14.2L-0.8-14.2Q-0.8-15.2-0.45-15.95L-0.45-15.95Q0.05-17.1 1.1-18.4 2.15-19.7 3.4-20.8 4.65-21.9 5.75-22.5L5.75-22.5Q6-22.6 6.03-22.48 6.05-22.35 5.85-22.2L5.85-22.2Q5.25-21.6 4.45-20.38 3.65-19.15 2.95-17.7 2.25-16.25 1.8-14.95L1.8-14.95Q1.4-13.65 1.4-12.6L1.4-12.6Q1.4-11.65 1.8-11.03 2.2-10.4 3.1-10.4L3.1-10.4Q5.05-10.4 7.25-11.9L7.25-11.9Q9.45-13.35 11.7-15.68 13.95-18 16.2-20.9L16.2-20.9Q18.4-23.75 20.4-26.6L20.4-26.6Q21.45-28.15 22.68-29.95 23.9-31.75 25-33.35 26.1-34.95 26.75-35.9L26.75-35.9Q27.1-36.45 27.7-37.18 28.3-37.9 29.15-37.9L29.15-37.9Q30-37.9 30.3-37.35 30.6-36.8 30.6-36L30.6-36Q30.6-35.2 30.35-34.27 30.1-33.35 29.8-32.7L29.8-32.7Q28.3-29.55 26.73-26.63 25.15-23.7 23.6-20.85L23.6-20.85Q22-17.95 20.45-15.03 18.9-12.1 17.4-8.9L17.4-8.9Q17-8.05 16.25-6.33 15.5-4.6 14.68-2.65 13.85-0.7 13.2 1.03 12.55 2.75 12.35 3.6L12.35 3.6Q12.15 4.5 12.08 5.23 12 5.95 12 6.5L12 6.5Q12 8.5 12.85 8.5L12.85 8.5Q13.5 8.5 14.48 7.25 15.45 6 16.45 3.45L16.45 3.45Q17.55 0.75 18.3-1.25 19.05-3.25 19.7-5.05L19.7-5.05Q20.25-6.55 20.98-8.53 21.7-10.5 22.48-12.63 23.25-14.75 24.03-16.78 24.8-18.8 25.45-20.4L25.45-20.4Q27.05-24.25 28.95-28.03 30.85-31.8 33.25-35.2L33.25-35.2Q37.6-41.5 42.2-41.5L42.2-41.5Q44.25-41.5 45.43-40.4 46.6-39.3 46.6-37.35L46.6-37.35Q46.6-37.05 46.6-36.75 46.6-36.45 46.5-36.1L46.5-36.1Q46.1-33.8 45.25-30.95 44.4-28.1 43.25-25.05 42.1-22 40.85-19.07 39.6-16.15 38.45-13.75L38.45-13.75Q39.75-15.75 41.55-18 43.35-20.25 45.3-22.33 47.25-24.4 49.1-26.03 50.95-27.65 52.4-28.4L52.4-28.4Q53.5-29.05 54.6-29.05L54.6-29.05Q55.45-29.05 56.15-28.65 56.85-28.25 57.15-27.55L57.15-27.55Q57.55-26.7 57.55-25.5L57.55-25.5Q57.55-24.25 57.1-22.85 56.65-21.45 55.95-19.85L55.95-19.85Q55.35-18.6 54.48-16.8 53.6-15 52.73-13.08 51.85-11.15 51.3-9.6L51.3-9.6Q50.9-8.55 50.35-6.75L50.35-6.75Q49.75-4.9 49.3-2.78 48.85-0.65 48.65 1.5L48.65 1.5Q48.6 1.95 48.58 2.38 48.55 2.8 48.55 3.2L48.55 3.2Q48.55 3.8 48.63 4.38 48.7 4.95 48.75 5.45L48.75 5.45Q49.05 7.25 50 8.38 50.95 9.5 52.85 9.5L52.85 9.5Q53.55 9.5 54.3 9.33 55.05 9.15 55.65 8.65L55.65 8.65Q56.05 8.45 56.3 8.45L56.3 8.45Q56.5 8.45 56.5 8.6L56.5 8.6Q56.5 8.85 56 9.2L56 9.2Q55.15 10 53.93 10.38 52.7 10.75 51.3 10.75ZM54.95 18.15L54.95 18.15Q53.1 18.15 52.17 17.32 51.25 16.5 51.25 15.1L51.25 15.1Q51.25 13.85 52.02 12.2 52.8 10.55 54.4 8.7L54.4 8.7Q56.15 6.6 59 4.35 61.85 2.1 65.15 0.1L65.15 0.1Q68.4-1.85 71.77-3.35 75.15-4.85 77.95-5.45L77.95-5.45Q79-7.6 79.62-9.88 80.25-12.15 80.25-14L80.25-14Q80.25-15.8 79.55-16.75L79.55-16.75 78.95-15.5Q78.8-15.25 78.62-14.9 78.45-14.55 78.2-14.15L78.2-14.15Q77.15-12.3 75.6-10.2 74.05-8.1 72.05-6.25 70.05-4.4 67.67-3.25 65.3-2.1 62.55-2.1L62.55-2.1Q62.15-2.1 61.75-2.13 61.35-2.15 60.95-2.2L60.95-2.2Q57.95-2.55 56.55-4.4 55.15-6.25 55.15-8.8L55.15-8.8Q55.15-9.15 55.17-9.5 55.2-9.85 55.25-10.2L55.25-10.2Q55.65-13.55 57.35-17.03 59.05-20.5 61.5-23.58 63.95-26.65 66.65-28.8L66.65-28.8Q69.6-31.2 73.07-32.73 76.55-34.25 79.95-34.25L79.95-34.25Q80.4-34.25 80.85-34.25 81.3-34.25 81.75-34.15L81.75-34.15Q83.05-33.95 84.17-33.08 85.3-32.2 85.3-30.7L85.3-30.7Q85.3-30.15 85.05-29.4L85.05-29.4Q84.5-27.6 83.12-25.53 81.75-23.45 79.85-21.6L79.85-21.6Q79.05-20.8 77.45-19.55 75.85-18.3 73.95-17.1 72.05-15.9 70.25-15.13 68.45-14.35 67.2-14.5L67.2-14.5Q67.1-14.55 67.1-14.7L67.1-14.7Q67.1-14.85 67.2-14.85L67.2-14.85Q70.85-16.2 73.7-18.38 76.55-20.55 79.1-23.4L79.1-23.4Q79.45-23.8 80.02-24.6 80.6-25.4 81.2-26.3 81.8-27.2 82.2-27.95L82.2-27.95Q83-29.5 83-30.75L83-30.75Q83-31.35 82.8-31.85 82.6-32.35 82.05-32.7L82.05-32.7Q81.4-33.1 80.55-33.1L80.55-33.1Q78.9-33.1 76.72-32 74.55-30.9 72.4-29.3 70.25-27.7 68.55-26.15L68.55-26.15Q67.7-25.35 66.45-23.9L66.45-23.9Q65.2-22.45 63.87-20.63 62.55-18.8 61.3-16.75L61.3-16.75Q60-14.65 59.1-12.65L59.1-12.65Q58.45-11.2 58.07-9.83 57.7-8.45 57.7-7.3L57.7-7.3Q57.7-6.55 57.95-5.7L57.95-5.7Q58.45-4.3 59.4-3.7 60.35-3.1 61.5-3.1L61.5-3.1Q62.35-3.1 63.25-3.38 64.15-3.65 65.15-4.1L65.15-4.1Q66.4-4.7 67.82-5.6 69.25-6.5 70.45-7.43 71.65-8.35 72.3-8.95L72.3-8.95Q75.3-11.75 76.85-13.78 78.4-15.8 79.25-16.95L79.25-16.95Q79.1-17.1 78.8-17.2L78.8-17.2Q78.35-17.25 78.35-17.55L78.35-17.55Q78.35-17.9 78.85-18.05L78.85-18.05Q79.4-18.05 80.2-17.93 81-17.8 81.55-17.15L81.55-17.15Q82.7-15.85 82.7-12.95L82.7-12.95Q82.7-10 80.95-5.8L80.95-5.8Q82.25-5.8 83.42-5.48 84.6-5.15 85.3-4.45L85.3-4.45Q85.55-4.1 85.45-3.88 85.35-3.65 85.1-3.9L85.1-3.9Q84.85-4.15 84.25-4.25 83.65-4.35 82.9-4.35L82.9-4.35Q82.25-4.35 81.52-4.3 80.8-4.25 80.25-4.2L80.25-4.2Q77.85 1 75.05 4.75 72.25 8.5 69.4 11.05L69.4 11.05Q66.55 13.6 63.85 15.13 61.15 16.65 58.95 17.4L58.95 17.4Q56.65 18.15 54.95 18.15ZM54.55 17L54.55 17Q56.5 17 59.3 15.3L59.3 15.3Q61.75 13.8 64.37 11.43 67 9.05 69.4 6.4L69.4 6.4Q71.8 3.75 73.8 1.1 75.8-1.55 76.95-3.5L76.95-3.5Q74.6-2.85 71.75-1.58 68.9-0.3 65.97 1.35 63.05 3 60.45 4.88 57.85 6.75 56 8.65L56 8.65Q54.05 10.65 53.17 12.28 52.3 13.9 52.3 15L52.3 15Q52.3 17 54.55 17Z" opacity="1" transform="matrix(1,0,0,1,0,0)" fill="#915eef" class="wordmark-text-0" data-fill-palette-color="primary" id="text-0"></path></svg></g></svg></g></svg></g></svg></g></svg></g></svg></g></svg></g><g><path d="M0 123.6c0-68.262 55.338-123.6 123.6-123.6 30.402 0 58.24 10.976 79.768 29.183l-11.147 0c-19.26-14.022-42.974-22.294-68.621-22.295-64.458 0-116.712 52.254-116.712 116.712 0 64.458 52.254 116.712 116.712 116.712 25.647 0 49.361-8.272 68.621-22.295l11.147 0c-21.528 18.206-49.366 29.183-79.768 29.183-68.262 0-123.6-55.338-123.6-123.6z" fill="#ffffff" stroke="transparent" data-fill-palette-color="tertiary"></path></g></svg></g><defs></defs></svg><rect width="395.52" height="247.2" fill="none" stroke="none" visibility="hidden"></rect></g></svg></g></svg>